<?xml version="1.0" encoding="UTF-8" standalone="no"?>
<svg
   xmlns:dc="http://purl.org/dc/elements/1.1/"
   xmlns:cc="http://creativecommons.org/ns#"
   xmlns:rdf="http://www.w3.org/1999/02/22-rdf-syntax-ns#"
   xmlns:svg="http://www.w3.org/2000/svg"
   xmlns="http://www.w3.org/2000/svg"
   viewBox="0 0 364.93332 40.413334"
   height="40.413334"
   width="364.93332"
   xml:space="preserve"
   id="svg2"
   version="1.1"><metadata
     id="metadata8"><rdf:RDF><cc:Work
         rdf:about=""><dc:format>image/svg+xml</dc:format><dc:type
           rdf:resource="http://purl.org/dc/dcmitype/StillImage" /></cc:Work></rdf:RDF></metadata><defs
     id="defs6" /><g
     transform="matrix(1.3333333,0,0,-1.3333333,0,40.413333)"
     id="g10"><g
       transform="scale(0.1)"
       id="g12"><path
         id="path14"
         style="fill:#231f20;fill-opacity:1;fill-rule:nonzero;stroke:none"
         d="m 605.352,52.3867 h 36.726 c -7.699,31.461 -17.148,62.5193 -28.086,93.1723 -12.289,34.57 -28.488,68.597 -45.234,102.089 H 537.699 C 520.281,216.051 504.215,184.316 490.98,152.309 477.469,119.641 467.078,86.4141 458.031,52.3867 h 25.918 c 4.192,18.0938 9.59,37.1289 16.344,56.8513 h 89.531 c 5.805,-18.7692 11.067,-37.6794 15.528,-56.8513 m -97.223,78.7223 c 2.562,6.621 5.133,13.368 7.965,20.118 9.187,22.289 19.715,44.968 31.195,67.25 12.82,-26.872 22.82,-50.766 29.973,-71.43 1.886,-5.27 3.648,-10.668 5.398,-15.938 z M 771.172,247.648 H 700.684 V 52.3867 h 70.488 c 59.949,0 100.187,39.7031 100.187,97.6333 0,57.656 -40.101,97.628 -100.187,97.628 m 0,-172.0269 h -35.25 V 224.418 h 35.25 c 41.992,0 64.406,-32.813 64.406,-74.398 0,-41.051 -22.144,-74.3989 -64.406,-74.3989 M 1067.57,247.648 c -7.03,-30.652 -18.37,-64.41 -32.55,-98.847 -9.04,-21.871 -19.98,-44.024 -31.46,-65.7658 -11.88,26.3358 -19.849,49.5628 -27.009,69.9528 -10.801,30.918 -20.246,62.52 -27.68,94.66 h -36.73 c 7.429,-31.46 16.75,-62.519 27.683,-93.171 C 952.25,119.906 966.02,85.8789 982.23,52.3867 h 30.51 c 17.15,31.6016 34.17,63.3323 47.4,95.3323 13.5,32.676 24.31,65.898 33.35,99.929 z M 1255.13,52.3867 h 36.73 c -7.7,31.461 -17.15,62.5193 -28.09,93.1723 -12.29,34.57 -28.49,68.597 -45.24,102.089 h -31.05 c -17.42,-31.597 -33.49,-63.332 -46.73,-95.339 -13.5,-32.668 -23.9,-65.8949 -32.94,-99.9223 h 25.92 c 4.19,18.0938 9.59,37.1289 16.34,56.8513 h 89.53 c 5.81,-18.7692 11.07,-37.6794 15.53,-56.8513 m -97.23,78.7223 c 2.57,6.621 5.14,13.368 7.97,20.118 9.18,22.289 19.72,44.968 31.19,67.25 12.83,-26.872 22.82,-50.766 29.98,-71.43 1.89,-5.27 3.65,-10.668 5.4,-15.938 z m 217.68,116.539 112.07,-141.25 v 141.25 h 24.58 V 52.3867 h -25.39 L 1374.76,193.77 V 52.3867 h -24.57 V 247.648 Z m 350.81,0 H 1570.7 v -23.23 h 60.22 V 52.3867 h 35.25 V 224.418 h 60.22 z m 183.24,-23.23 v 23.23 h -124.5 V 52.3867 h 124.5 v 23.6289 h -89.26 v 65.7614 h 70.89 v 22.825 h -70.89 v 59.816 z M 2139.86,52.3867 2037.1,149.746 c 40.78,26.332 65.35,50.231 90.47,97.902 h -25.93 c -27.27,-46.863 -54.42,-67.789 -91.28,-89.8 v 89.929 h -35.24 V 52.3867 h 35.24 v 80.7543 l 83.05,-80.7543 h 46.45" /><path
         id="path16"
         style="fill:#f04022;fill-opacity:1;fill-rule:nonzero;stroke:none"
         d="m 205.52,186.539 33.718,98.871 c -6.883,3.449 -14.027,6.461 -21.445,8.969 -35.504,11.98 -72.281,11.141 -105.324,0.019 L 66.3984,158.949 205.52,186.539" /><path
         id="path18"
         style="fill:#f04022;fill-opacity:1;fill-rule:nonzero;stroke:none"
         d="M 103.141,147.652 0,127.289 C 1.37109,105.727 7.01953,84.4492 16.8984,64.5039 26.7188,44.6484 40.1406,27.3203 56.3711,13.1992 L 196.27,40.918 103.141,147.652" /><path
         id="path20"
         style="fill:#f04022;fill-opacity:1;fill-rule:nonzero;stroke:none"
         d="m 151.973,119 21.988,-25.1602 13.949,41.0702 10.848,31.828 -42.66,-8.629 -32.52,-6.418 L 151.973,119" /><path
         id="path22"
         style="fill:#f04022;fill-opacity:1;fill-rule:nonzero;stroke:none"
         d="M 187.688,78.1484 256,0 c 30.641,20.1602 53.57,49.7031 65.488,84.9883 2.282,6.7695 4.071,13.6094 5.465,20.4917 L 233.434,212.262 187.688,78.1484" /><g
         transform="scale(10)"
         id="g24"><text
           id="text30"
           style="font-variant:normal;font-weight:normal;font-size:11.30000019px;font-family:MyriadPro;-inkscape-font-specification:MyriadPro-Regular;writing-mode:lr-tb;fill:#f04020;fill-opacity:1;fill-rule:nonzero;stroke:none"
           transform="matrix(1,0,0,-1,220.62,16.8051)"><tspan
             id="tspan26"
             y="0"
             x="0 7.5029368 11.276874 18.655773 22.429733 27.299845 33.876499">digital</tspan><tspan
             id="tspan28"
             y="11.4801"
             x="0 5.6044879 12.937973 16.734852 24.090816 28.960926 32.734886 40.068836 47.470219">solutions</tspan></text>
</g></g></g></svg>