<?xml version="1.0" encoding="UTF-8" standalone="no"?>
<svg
   xmlns:dc="http://purl.org/dc/elements/1.1/"
   xmlns:cc="http://creativecommons.org/ns#"
   xmlns:rdf="http://www.w3.org/1999/02/22-rdf-syntax-ns#"
   xmlns:svg="http://www.w3.org/2000/svg"
   xmlns="http://www.w3.org/2000/svg"
   viewBox="0 0 288.13333 46.439999"
   height="46.439999"
   width="288.13333"
   xml:space="preserve"
   id="svg2"
   version="1.1"><metadata
     id="metadata8"><rdf:RDF><cc:Work
         rdf:about=""><dc:format>image/svg+xml</dc:format><dc:type
           rdf:resource="http://purl.org/dc/dcmitype/StillImage" /></cc:Work></rdf:RDF></metadata><defs
     id="defs6" /><g
     transform="matrix(1.3333333,0,0,-1.3333333,0,46.44)"
     id="g10"><g
       transform="scale(0.1)"
       id="g12"><path
         id="path14"
         style="fill:#ffffff;fill-opacity:1;fill-rule:nonzero;stroke:none"
         d="m 626.516,76.9766 h 36.726 c -7.707,31.4614 -17.148,62.5194 -28.094,93.1684 -12.285,34.57 -28.488,68.597 -45.226,102.089 h -31.063 c -17.414,-31.601 -33.488,-63.328 -46.718,-95.339 -13.508,-32.668 -23.899,-65.891 -32.95,-99.9184 h 25.918 c 4.188,18.0898 9.59,37.1284 16.344,56.8514 h 89.524 c 5.808,-18.769 11.074,-37.6835 15.539,-56.8514 m -97.231,78.7184 c 2.57,6.618 5.141,13.371 7.973,20.118 9.187,22.292 19.715,44.972 31.191,67.253 12.821,-26.871 22.821,-50.773 29.969,-71.433 1.895,-5.266 3.652,-10.668 5.402,-15.938 z M 792.336,272.234 H 721.848 V 76.9766 h 70.488 c 59.949,0 100.184,39.6954 100.184,97.6254 0,57.664 -40.098,97.632 -100.184,97.632 m 0,-172.031 h -35.258 v 148.805 h 35.258 c 41.98,0 64.402,-32.813 64.402,-74.406 0,-41.047 -22.148,-74.399 -64.402,-74.399 m 296.394,172.031 c -7.03,-30.648 -18.37,-64.41 -32.55,-98.847 -9.04,-21.871 -19.98,-44.024 -31.46,-65.762 -11.88,26.328 -19.85,49.563 -27.005,69.953 -10.801,30.918 -20.254,62.52 -27.684,94.656 h -36.73 c 7.433,-31.461 16.75,-62.519 27.676,-93.168 12.433,-34.57 26.203,-68.597 42.413,-102.0894 h 30.51 c 17.15,31.6014 34.17,63.3284 47.4,95.3284 13.5,32.679 24.32,65.902 33.35,99.929 z M 1276.29,76.9766 h 36.73 c -7.7,31.4614 -17.15,62.5194 -28.09,93.1684 -12.29,34.57 -28.48,68.597 -45.24,102.089 h -31.05 c -17.42,-31.601 -33.49,-63.328 -46.73,-95.339 -13.5,-32.668 -23.9,-65.891 -32.94,-99.9184 h 25.92 c 4.19,18.0898 9.59,37.1284 16.34,56.8514 h 89.53 c 5.81,-18.769 11.08,-37.6835 15.53,-56.8514 m -97.23,78.7184 c 2.57,6.618 5.14,13.371 7.97,20.118 9.18,22.292 19.72,44.972 31.19,67.253 12.83,-26.871 22.83,-50.773 29.98,-71.433 1.89,-5.266 3.66,-10.668 5.4,-15.938 z m 217.68,116.539 112.07,-141.25 v 141.25 h 24.58 V 76.9766 H 1508 L 1395.92,218.352 V 76.9766 h -24.57 V 272.234 Z m 350.81,0 h -155.68 v -23.226 h 60.21 V 76.9766 h 35.25 V 249.008 h 60.22 z m 183.24,-23.226 v 23.226 h -124.5 V 76.9766 h 124.5 v 23.6284 h -89.26 v 65.762 h 70.89 v 22.817 h -70.89 v 59.824 z M 2161.03,76.9766 2058.26,174.336 c 40.78,26.332 65.35,50.227 90.47,97.898 h -25.93 c -27.27,-46.859 -54.42,-67.789 -91.28,-89.8 v 89.933 h -35.24 V 76.9766 h 35.24 v 80.7464 l 83.05,-80.7464 h 46.46" /><path
         id="path16"
         style="fill:#ffffff;fill-opacity:1;fill-rule:nonzero;stroke:none"
         d="M 342.512,109.582 C 330.586,74.2578 307.629,44.6797 276.965,24.5039 L 208.574,102.727 254.367,236.98 347.98,130.09 c -1.386,-6.879 -3.183,-13.735 -5.468,-20.508 z M 77.1211,37.7188 C 60.875,51.8594 47.4375,69.2031 37.6094,89.0742 27.7266,109.039 22.0664,130.344 20.6953,151.922 L 123.941,172.313 217.156,65.4609 Z m 142.5469,153.7072 -10.867,-31.871 -13.965,-41.117 -22.012,25.195 -28.418,32.719 32.559,6.429 z m -86.379,127.777 c 33.07,11.137 69.875,11.973 105.41,-0.015 7.446,-2.508 14.59,-5.528 21.489,-8.985 L 226.426,211.238 87.168,183.621 Z M 261.25,257.137 c 0,0 17.5,58.066 20.734,64.172 -11.496,6.933 -23.73,12.781 -36.757,17.175 -42.364,14.297 -86.348,12.383 -125.196,-2.382 L 66.2461,179.473 c 0,0 -63.23438,-11.414 -66.066412,-11.535 C -1.19531,136.992 5.22656,108.559 19.3516,80.0313 30.9375,56.6328 46.9961,36.3945 66.418,20.1211 l 3.2617,-2.707 c 0.8125,-0.6485 161.5043,32 161.5043,32 0,0 40.468,-43.37504 44.226,-49.41800625 C 316.211,22.4609 346.824,58.6563 361.809,103.07 c 3.269,9.664 5.664,19.457 7.304,29.313 l 0.203,1.363 c 0.352,2.168 -108.066,123.391 -108.066,123.391" /></g></g></svg>